<?xml version="1.0" standalone="no"?>
<!DOCTYPE svg PUBLIC "-//W3C//DTD SVG 20010904//EN"
 "http://www.w3.org/TR/2001/REC-SVG-20010904/DTD/svg10.dtd">
<svg version="1.0" xmlns="http://www.w3.org/2000/svg"
 width="1000.000000pt" height="1000.000000pt" viewBox="0 0 1000.000000 1000.000000"
 preserveAspectRatio="xMidYMid meet">
<metadata>
Created by potrace 1.14, written by Peter Selinger 2001-2017
</metadata>
<g transform="translate(0.000000,1000.000000) scale(0.100000,-0.100000)"
fill="#000000" stroke="none">
<path d="M0 7441 l0 -2560 21 -6 c26 -8 123 -87 167 -134 82 -90 133 -211 152
-361 5 -41 15 -96 21 -122 9 -41 15 -48 35 -48 27 0 29 -6 12 -59 -11 -34 -16
-38 -43 -37 -16 0 -30 -4 -30 -10 0 -7 42 -49 93 -94 87 -76 95 -82 117 -70
20 11 31 7 102 -39 44 -28 88 -60 98 -71 33 -36 46 -26 39 30 -4 31 -3 50 4
50 5 0 12 9 15 20 6 23 -3 26 -21 8 -10 -10 -15 -10 -22 2 -5 8 -13 11 -17 6
-4 -4 1 -14 11 -22 11 -8 14 -14 8 -14 -7 0 -12 -8 -12 -17 0 -13 -8 -8 -32
17 -17 19 -33 34 -35 32 -2 -2 -15 6 -29 17 -22 18 -23 20 -8 29 17 9 17 11
-1 28 -21 21 -8 29 26 15 13 -5 17 -10 9 -11 -13 0 -13 -1 0 -11 11 -8 12 -12
2 -16 -6 -2 -12 -8 -12 -13 0 -10 50 2 50 13 1 29 -1 31 -10 17 -8 -12 -10 -9
-10 13 0 15 5 27 10 27 6 0 10 7 10 16 0 11 6 13 19 9 11 -3 22 -1 26 5 10 16
25 12 19 -5 -4 -9 0 -15 9 -15 9 0 15 10 14 25 0 72 129 243 235 312 39 26 51
28 138 28 101 0 154 -14 171 -47 9 -17 11 -17 44 8 39 29 141 64 189 64 18 0
41 -7 52 -15 10 -8 28 -15 39 -15 11 0 38 -10 60 -21 l39 -21 16 22 c68 98
132 136 210 125 44 -6 46 -5 62 27 10 18 34 62 54 98 20 36 56 105 81 153 57
110 84 143 126 151 21 4 49 23 77 52 25 25 57 52 72 60 36 19 130 18 215 -2
81 -19 127 -14 197 20 127 62 256 225 368 464 80 173 119 311 119 432 1 106
-16 161 -72 231 -31 40 -140 129 -157 129 -5 0 -24 7 -42 17 -25 12 -58 16
-129 15 -108 -2 -172 8 -314 45 -105 27 -127 45 -107 83 6 11 14 20 18 21 4 0
30 3 57 5 28 3 91 19 140 36 83 29 103 31 248 35 153 3 161 3 210 -21 29 -14
71 -40 95 -57 33 -25 45 -30 54 -21 35 35 169 -15 258 -95 72 -64 84 -104 77
-255 -2 -68 -12 -148 -20 -179 -9 -30 -17 -62 -19 -69 -2 -10 11 -16 41 -20
30 -5 51 -15 66 -32 27 -32 39 -101 25 -148 -15 -52 -13 -70 10 -70 61 0 100
-56 100 -146 0 -40 -6 -62 -21 -84 -59 -79 -174 -57 -194 38 -8 40 -20 40 -60
3 -16 -16 -64 -48 -105 -71 -41 -23 -90 -56 -107 -73 -29 -27 -35 -29 -58 -19
-14 7 -30 12 -34 12 -5 0 -6 -31 -3 -69 2 -40 0 -83 -8 -105 -13 -39 -97 -126
-229 -235 -79 -66 -161 -149 -161 -163 0 -4 -6 -8 -14 -8 -20 0 -31 -21 -17
-30 9 -5 9 -11 -3 -22 -8 -9 -13 -18 -10 -20 13 -13 -105 -51 -161 -52 -44 -1
-69 -7 -95 -24 -19 -12 -38 -22 -42 -22 -23 0 -1 -22 50 -50 108 -61 325 -215
374 -265 27 -27 66 -79 86 -114 33 -56 44 -67 98 -92 120 -57 204 -158 204
-245 0 -40 2 -44 25 -44 17 0 32 -12 52 -42 45 -68 55 -98 58 -174 3 -71 4
-72 49 -114 47 -44 113 -139 141 -206 9 -22 19 -70 22 -109 4 -62 2 -76 -21
-118 -30 -55 -33 -85 -11 -94 25 -9 45 -58 45 -110 0 -44 -25 -132 -43 -149
-13 -14 -7 -43 17 -79 33 -47 43 -159 27 -280 -7 -49 -16 -126 -20 -170 -7
-65 -15 -91 -42 -135 -18 -30 -44 -66 -56 -80 -24 -26 -30 -55 -13 -65 19 -12
5 -160 -21 -227 -11 -26 -89 -76 -89 -56 0 5 -8 5 -18 -1 -10 -5 -34 -10 -53
-9 -19 0 -113 0 -209 -1 -96 0 -193 4 -215 9 -22 5 -89 10 -150 10 l-110 0 25
20 c14 12 40 27 58 35 27 12 32 19 32 49 0 19 5 38 10 41 6 4 18 25 27 47 16
41 43 58 89 58 23 0 31 19 24 55 -1 5 1 29 5 52 7 45 20 56 30 24 8 -28 37
-36 52 -15 7 10 13 41 13 70 0 51 22 119 52 157 13 17 15 17 27 3 8 -9 22 -16
32 -16 23 0 25 36 3 65 -15 20 -27 60 -38 127 -4 24 -13 39 -25 43 -11 3 -26
21 -35 39 -30 63 -15 244 24 298 15 21 18 36 13 77 -6 54 9 129 35 170 14 23
13 26 -12 45 -16 12 -44 36 -63 54 -38 35 -37 22 -21 161 3 25 -1 28 -69 56
-57 24 -78 49 -98 117 -10 34 -22 59 -31 59 -20 2 -24 4 -64 22 -51 24 -68 40
-75 70 -8 30 -15 33 -33 15 -10 -10 -1 -23 40 -60 29 -26 61 -48 70 -48 21 0
44 -41 53 -95 4 -22 16 -55 27 -74 12 -22 17 -43 13 -59 -4 -17 -2 -22 6 -16
9 5 10 -1 5 -22 -4 -16 -6 -36 -6 -44 3 -46 -1 -387 -5 -400 -3 -9 -1 -29 4
-46 7 -26 5 -34 -10 -48 -11 -9 -19 -29 -19 -46 0 -35 1 -26 -15 -97 -7 -32
-16 -83 -20 -113 -4 -30 -11 -62 -15 -70 -4 -8 -9 -31 -11 -50 -2 -19 -11 -48
-21 -65 -10 -16 -18 -40 -18 -52 0 -13 -4 -23 -8 -23 -4 0 -20 -27 -35 -60
-26 -56 -33 -63 -96 -94 -77 -39 -177 -73 -331 -111 -58 -14 -127 -32 -155
-40 -27 -8 -71 -20 -97 -27 -40 -10 -48 -16 -48 -35 0 -19 4 -22 23 -18 15 4
28 1 37 -10 12 -14 10 -24 -13 -71 -39 -79 -36 -95 28 -159 30 -31 55 -60 55
-65 0 -6 5 -10 11 -10 7 0 20 -9 30 -21 18 -21 19 -21 481 -15 255 3 526 9
604 12 150 7 165 3 144 -36 -9 -17 -14 -19 -25 -10 -15 13 -71 5 -92 -12 -8
-6 -10 -25 -7 -51 8 -54 -19 -82 -77 -81 -45 2 -50 -9 -14 -32 14 -9 30 -34
37 -55 10 -34 9 -42 -7 -59 -21 -23 -37 -25 -65 -8 -29 19 -34 4 -16 -50 19
-55 15 -73 -17 -87 -19 -9 -23 -21 -29 -80 -6 -68 -34 -140 -60 -157 -7 -4
-30 -8 -51 -8 -28 0 -44 7 -63 27 -28 30 -43 24 -25 -11 17 -30 4 -55 -46 -93
-31 -24 -45 -28 -98 -27 -48 0 -69 5 -90 22 -16 12 -31 20 -34 16 -3 -3 7 -16
22 -28 27 -21 27 -24 12 -40 -19 -19 -143 -23 -176 -5 -15 8 -32 6 -66 -5 -59
-20 -86 -20 -129 0 -33 16 -37 16 -68 -1 -30 -17 -34 -17 -58 -1 -14 9 -33 32
-44 51 -18 33 -18 37 -1 99 24 91 22 195 -7 287 -20 64 -23 90 -19 175 3 54
12 118 20 142 12 32 13 46 5 54 -9 9 -12 7 -12 -8 0 -10 -11 -41 -24 -69 l-24
-50 -11 28 c-6 16 -15 25 -21 22 -20 -12 -6 -135 15 -135 18 0 24 -21 12 -44
-9 -18 -7 -36 20 -196 3 -19 6 -54 7 -77 2 -39 0 -43 -20 -43 -29 0 -39 -16
-24 -35 10 -12 9 -15 -3 -15 -8 0 -18 11 -21 25 -4 14 -12 25 -19 25 -6 0 -30
25 -51 55 -22 30 -47 63 -55 72 -60 67 -221 265 -242 298 -70 110 -183 315
-223 402 -84 188 -203 549 -221 673 -4 25 -19 97 -35 160 -26 109 -27 122 -20
265 8 172 4 323 -11 411 -6 34 -9 70 -7 81 1 10 -7 39 -19 64 -12 24 -32 70
-44 103 -18 48 -30 64 -68 87 -54 35 -65 36 -57 7 11 -36 36 -218 36 -265 0
-39 -2 -43 -25 -43 -17 0 -25 -6 -25 -17 0 -9 24 -98 54 -197 72 -241 99 -337
136 -486 17 -69 37 -142 45 -162 8 -20 40 -139 70 -265 96 -390 167 -536 410
-844 77 -99 272 -367 289 -399 7 -14 27 -51 45 -84 82 -151 126 -335 124 -529
l0 -127 3923 0 3924 0 0 1160 c0 638 -1 1160 -3 1160 -2 0 -29 -13 -61 -29
-32 -17 -82 -35 -112 -42 -59 -13 -62 -20 -38 -68 49 -99 -69 -274 -215 -317
-124 -37 -250 -14 -369 66 -65 43 -77 59 -86 116 -8 44 -22 72 -31 62 -4 -3
-15 -80 -26 -170 -21 -187 -39 -279 -75 -393 -47 -152 -64 -143 -40 22 17 121
21 289 8 309 -4 6 -16 8 -26 4 -13 -4 -43 6 -90 30 -74 39 -92 65 -61 90 14
11 23 10 59 -8 24 -11 59 -34 79 -51 19 -17 38 -31 42 -31 12 0 -2 237 -19
320 -40 194 -91 320 -189 465 -22 33 -63 94 -91 135 -28 41 -72 96 -98 121
-53 51 -57 63 -29 79 17 8 32 0 97 -51 101 -80 181 -162 236 -240 50 -71 122
-203 132 -243 3 -14 11 -26 16 -26 11 0 3 48 -12 66 -5 7 -11 34 -15 62 l-6
50 124 99 c69 54 193 143 276 198 145 95 152 102 152 133 1 19 -8 45 -19 59
-43 55 -20 119 80 226 65 69 169 149 294 226 71 44 116 122 116 201 0 44 -4
56 -31 82 -29 29 -33 30 -92 26 -65 -6 -176 -45 -239 -85 -46 -28 -55 -29 -63
-3 -8 26 -25 16 -25 -14 0 -38 -65 -86 -117 -86 -28 0 -29 -1 -29 -54 1 -87
-43 -121 -181 -142 -40 -5 -42 -8 -37 -31 14 -55 -104 -118 -158 -84 -15 9
-19 8 -24 -6 -19 -65 -54 -93 -140 -113 -45 -11 -56 -10 -85 4 -33 17 -34 16
-52 -9 -22 -29 -67 -55 -96 -55 -50 0 -238 82 -248 107 -7 18 -33 16 -56 -5
-14 -12 -36 -17 -83 -17 -56 0 -67 3 -91 27 -22 22 -27 36 -26 69 2 38 0 41
-20 34 -108 -35 -202 -27 -232 19 l-15 23 -48 -23 c-55 -27 -83 -29 -121 -9
-32 16 -47 48 -57 120 -14 107 -41 126 -234 170 -63 14 -135 35 -159 47 -65
31 -151 105 -221 187 -112 135 -123 192 -16 81 67 -70 70 -72 110 -66 23 3 82
8 131 11 154 10 141 -1 137 118 -3 76 -6 97 -14 84 -5 -10 -8 -38 -6 -63 4
-51 -12 -54 -28 -4 -8 24 -12 28 -17 16 -9 -22 -37 -9 -36 18 0 21 1 21 10 1
9 -19 9 -18 5 3 -4 22 17 32 27 12 3 -6 4 -5 3 2 -2 7 -18 13 -38 14 -19 1
-40 4 -47 8 -7 5 -11 0 -11 -13 0 -26 -12 -32 -47 -25 -25 5 -29 10 -25 29 7
40 -18 41 -52 1 -29 -34 -35 -37 -108 -43 l-76 -6 -8 49 c-5 27 -8 75 -7 106
1 54 0 58 -35 85 -88 65 -95 90 -89 298 4 136 2 180 -10 221 -15 50 -15 52 11
107 46 97 47 105 31 137 -8 16 -15 53 -15 83 0 46 5 61 35 100 39 51 41 63 20
91 -28 37 -11 139 36 216 15 25 32 63 39 85 15 49 37 78 78 99 25 13 32 23 32
45 0 32 43 96 89 132 85 65 82 60 74 107 l-8 43 -110 -90 c-60 -49 -143 -113
-184 -142 l-74 -53 -51 18 c-45 17 -51 17 -61 2 -10 -13 -22 -6 -89 57 -62 59
-77 78 -74 98 3 21 9 25 60 29 66 6 96 30 105 85 3 20 11 35 19 35 12 0 19 26
15 53 0 4 5 7 12 7 8 0 22 9 31 19 9 10 30 21 45 23 l28 4 -14 -34 c-23 -56
-14 -70 26 -36 53 44 91 144 56 144 -20 0 -19 6 10 135 38 172 141 407 195
445 18 13 30 30 30 44 0 48 34 118 81 171 77 83 228 169 344 195 27 6 54 15
60 20 37 30 257 38 291 9 29 -24 -18 -44 -133 -58 -59 -7 -112 -16 -117 -21
-5 -5 23 -41 67 -84 l75 -76 129 19 c70 10 129 18 130 17 2 -1 4 -24 6 -52 2
-38 6 -48 17 -44 8 2 37 4 64 5 41 0 52 -4 68 -26 18 -23 19 -31 9 -62 -7 -19
-32 -60 -56 -92 -25 -32 -45 -61 -45 -66 0 -19 41 -49 68 -49 89 0 133 32 293
213 219 248 338 335 488 357 71 10 75 10 129 -17 47 -24 58 -34 71 -70 12 -34
12 -44 2 -57 -18 -22 -46 -20 -81 5 -24 18 -38 21 -84 16 -30 -3 -83 -18 -117
-33 -53 -24 -81 -48 -202 -178 -146 -157 -176 -204 -177 -271 0 -51 -38 -131
-81 -172 -38 -35 -141 -90 -188 -99 -17 -4 -31 -9 -31 -13 0 -3 21 -17 46 -31
26 -13 60 -37 76 -53 32 -33 27 -34 128 33 88 59 191 110 275 138 203 67 423
165 524 235 66 45 136 112 200 192 31 39 66 79 79 90 27 23 41 77 42 155 1
107 31 106 83 -3 58 -122 61 -116 53 104 -7 213 -17 272 -86 514 -46 162 -62
310 -42 390 95 384 156 556 246 699 43 68 49 85 31 92 -12 5 -15 30 -15 129 0
122 -24 287 -49 333 -18 34 -13 138 8 181 23 44 74 91 119 110 24 10 32 20 32
38 0 27 1 27 -90 -5 -30 -10 -56 -13 -75 -7 -17 4 -25 9 -18 12 8 3 7 11 -3
31 -8 15 -14 37 -14 50 0 12 -4 22 -10 22 -5 0 -10 7 -10 16 0 8 4 13 9 10 5
-3 11 0 14 7 4 12 54 20 120 20 15 -1 27 3 27 8 0 5 -1206 9 -2845 9 -2271 0
-2846 -3 -2844 -12 4 -30 -3 -38 -31 -38 -23 0 -33 6 -42 25 l-11 25 -2089 0
-2088 0 0 -2559z m868 2537 c14 -14 16 -146 3 -167 -5 -8 -16 -11 -24 -8 -19
7 -33 152 -16 173 14 17 21 18 37 2z m3005 -11 c9 -1 17 -4 17 -8 0 -4 33 -7
73 -7 39 0 87 -3 105 -7 23 -5 32 -4 32 5 0 8 9 10 26 6 17 -5 23 -3 19 4 -13
21 32 9 53 -15 12 -14 29 -25 37 -25 8 0 21 -12 29 -27 8 -16 15 -22 16 -15 0
6 12 12 28 12 19 0 23 -3 13 -9 -11 -7 -9 -10 8 -16 11 -3 21 -11 21 -17 0 -6
12 -8 30 -4 19 3 29 2 25 -4 -3 -6 2 -10 13 -10 10 0 28 -9 39 -20 24 -21 37
-22 188 -8 107 11 128 8 335 -46 108 -28 160 -47 160 -58 0 -4 6 -8 13 -8 16
0 90 -39 98 -53 4 -5 16 -8 26 -5 11 3 28 -1 38 -8 10 -8 15 -14 9 -14 -15 -1
60 -39 78 -40 9 0 28 -10 42 -22 13 -13 38 -35 56 -50 17 -15 32 -36 33 -47 1
-12 5 -21 9 -21 4 0 5 -7 1 -16 -5 -13 -2 -15 15 -9 18 5 22 2 22 -15 0 -12
-4 -19 -9 -16 -5 3 -11 -1 -14 -9 -4 -8 -1 -12 6 -9 7 2 25 -6 41 -19 28 -23
28 -24 12 -55 -19 -36 -20 -56 -5 -83 8 -16 13 -18 25 -8 11 9 18 7 34 -11 11
-13 26 -20 35 -16 9 3 15 0 15 -8 0 -15 64 -31 80 -21 6 4 25 -2 43 -13 34
-19 86 -37 101 -33 4 1 14 -3 21 -9 7 -6 31 -12 53 -13 26 -1 38 -5 35 -13 -3
-9 -101 -13 -388 -16 -211 -1 -386 -6 -390 -10 -4 -3 1 -21 11 -40 10 -18 17
-41 15 -50 -1 -9 4 -30 12 -45 17 -34 22 -160 7 -178 -8 -9 -8 -15 0 -20 11
-7 77 28 219 118 154 97 231 130 321 135 97 6 129 -9 159 -73 24 -51 21 -51
94 7 67 52 159 101 242 129 l70 24 -40 5 -40 6 55 14 c62 16 201 19 305 5 66
-8 68 -9 36 -17 -18 -5 -32 -11 -30 -13 2 -2 56 -13 119 -24 133 -24 193 -57
260 -143 76 -95 95 -142 95 -235 l0 -83 38 0 c30 0 39 -5 46 -22 12 -31 8 -33
-37 -15 -21 8 -69 18 -108 21 -110 8 -2485 12 -2524 3 -57 -12 -121 -50 -153
-89 l-30 -38 2 -172 c1 -95 3 -174 5 -175 1 -1 15 4 30 12 16 8 36 15 46 15
10 0 51 17 91 37 41 20 75 37 75 38 1 0 4 17 8 38 6 29 4 37 -8 37 -20 0 -56
-39 -56 -61 0 -10 -9 -24 -21 -32 -18 -13 -28 -13 -82 -1 -34 8 -65 20 -69 27
-4 6 -7 58 -6 114 l1 103 1431 -2 1431 -3 24 -60 c49 -120 26 -294 -54 -420
-64 -101 -204 -201 -309 -221 -45 -8 -54 -25 -32 -59 42 -65 -42 -257 -138
-316 -17 -10 -49 -21 -72 -25 -36 -5 -43 -10 -48 -35 -6 -33 -56 -69 -95 -69
-14 0 -32 -6 -40 -14 -21 -18 -98 -42 -196 -61 -56 -11 -136 -16 -266 -16
-162 1 -193 -2 -245 -20 -32 -11 -69 -27 -82 -35 -13 -9 -56 -18 -95 -21 -87
-7 -116 -23 -191 -104 -97 -105 -136 -196 -155 -362 -7 -64 -5 -98 10 -175 45
-232 80 -342 131 -414 84 -116 192 -219 275 -261 17 -10 62 -21 100 -27 37 -5
93 -17 123 -25 30 -8 69 -15 87 -15 17 0 34 -4 37 -9 3 -5 21 -12 39 -15 40
-7 99 -59 91 -79 -7 -19 -110 -30 -237 -27 -51 2 -141 2 -202 1 -141 -2 -121
-18 38 -31 63 -5 136 -14 163 -19 27 -5 101 -17 164 -26 109 -16 251 -42 385
-70 33 -7 98 -21 145 -30 122 -24 120 -22 120 -111 0 -76 0 -76 -51 -145 -29
-38 -59 -69 -68 -69 -9 0 -52 11 -96 25 -74 23 -82 23 -110 9 -26 -14 -103
-16 -575 -15 -892 1 -1099 3 -1045 11 28 4 60 6 72 3 46 -10 72 5 98 58 37 72
120 154 170 168 22 6 72 11 110 11 122 1 257 17 273 34 18 17 25 13 -83 45
-142 41 -157 43 -203 27 -75 -27 -146 -85 -296 -243 -38 -41 -59 -54 -99 -64
-49 -12 -51 -11 -74 15 -28 33 -29 52 -2 66 13 7 18 17 15 27 -8 20 21 53 45
53 21 0 43 -35 33 -51 -3 -6 -20 -17 -38 -24 l-31 -13 27 -12 c37 -17 54 -8
65 38 7 28 7 45 -2 63 -12 23 -8 29 89 119 55 52 115 105 131 117 l30 22 -132
1 c-81 0 -134 -4 -138 -10 -5 -8 -11 -8 -20 0 -9 8 -97 10 -277 9 -144 -1
-271 -1 -280 0 -14 1 -18 14 -20 79 l-3 77 -40 3 c-22 2 -44 8 -49 13 -6 5
-22 9 -37 9 -31 0 -78 40 -105 89 -11 19 -34 57 -51 85 -18 28 -33 62 -33 77
0 17 -8 29 -23 36 -24 11 -57 67 -57 96 0 16 20 27 48 27 16 0 53 40 100 107
12 17 27 58 33 90 6 32 14 61 17 65 4 4 27 -2 51 -12 24 -11 51 -20 60 -20 9
0 25 -7 35 -15 11 -8 28 -15 38 -15 17 0 18 13 18 189 0 185 -4 226 -20 216
-5 -3 -61 -8 -124 -12 -121 -6 -143 1 -84 28 41 18 59 60 36 86 -20 23 -19 53
1 54 9 1 45 3 81 4 55 2 67 7 86 28 14 17 20 34 17 47 -5 19 -12 21 -62 20
-31 -1 -71 -2 -90 -1 l-33 1 18 28 c25 38 40 52 49 44 5 -4 5 1 2 10 -4 12 7
28 36 52 23 20 50 43 60 51 15 14 17 40 17 271 l0 255 -47 -6 c-145 -20 -330
-104 -409 -187 -52 -54 -74 -89 -90 -142 -10 -31 -23 -41 -67 -51 -26 -5 -27
-8 -21 -41 6 -30 4 -36 -15 -41 -16 -4 -21 -13 -21 -39 0 -42 -22 -54 -51 -28
-15 13 -18 25 -13 47 4 20 1 34 -11 47 -22 24 -14 47 17 52 23 3 24 8 12 61
-5 23 6 49 67 149 99 163 199 261 329 323 132 63 146 77 66 68 -40 -5 -44 -3
-64 29 -11 18 -32 44 -46 57 -25 23 -26 30 -26 127 0 79 4 109 18 133 32 58
79 37 144 -65 l27 -41 93 -5 c51 -3 95 -4 96 -2 2 1 6 21 9 43 9 64 -3 71
-123 71 -100 0 -106 1 -146 30 -40 30 -72 37 -95 22 -13 -8 -53 -105 -53 -128
0 -18 -86 -120 -191 -225 -41 -42 -91 -97 -113 -123 -21 -26 -65 -65 -97 -88
-32 -23 -59 -46 -59 -50 0 -4 -5 -8 -12 -8 -7 0 -24 -11 -38 -25 l-27 -26
-104 16 c-91 14 -132 20 -214 28 -11 1 -19 -3 -18 -10 2 -7 -3 -10 -10 -7 -10
3 -12 -3 -9 -25 4 -29 4 -29 -54 -36 -33 -3 -68 -7 -79 -8 -33 -4 105 -30 178
-33 101 -5 218 -21 229 -32 5 -5 5 -26 -3 -55 -7 -29 -9 -80 -5 -139 14 -198
16 -182 -24 -188 -45 -8 -99 -36 -127 -66 -12 -13 -25 -24 -30 -24 -12 0 -53
52 -53 68 0 9 -6 12 -16 8 -8 -3 -12 -2 -9 4 3 6 1 10 -4 10 -6 0 -11 -6 -11
-12 0 -9 -4 -8 -10 2 -8 11 -9 7 -3 -15 9 -36 8 -69 -2 -93 -5 -9 -7 -25 -6
-35 1 -10 -2 -24 -7 -30 -5 -7 -8 -20 -6 -30 1 -12 -2 -17 -11 -13 -7 2 -15
-4 -18 -15 -3 -10 -12 -19 -21 -19 -9 0 -16 -4 -16 -8 0 -11 -69 -44 -80 -37
-4 3 -10 1 -12 -4 -4 -11 -106 -16 -129 -7 -9 4 -29 8 -44 10 -16 2 -33 9 -39
17 -6 8 -23 16 -37 17 -28 2 -55 -24 -157 -146 -26 -31 -51 -52 -63 -52 -31 0
-106 56 -142 107 -17 25 -50 66 -72 92 -50 57 -84 109 -119 182 -31 67 -32 79
-6 109 11 13 20 36 20 51 0 21 7 32 30 44 59 30 81 21 145 -60 l23 -30 29 27
c15 15 49 36 76 48 l47 21 0 65 0 64 70 -6 c77 -8 100 2 100 42 0 12 15 57 34
98 35 76 35 76 75 77 23 1 46 3 51 4 6 1 18 4 28 5 9 1 -10 7 -43 14 -57 10
-60 13 -63 42 -2 18 -11 39 -20 47 -24 22 -133 77 -152 77 -22 0 -70 47 -70
69 0 41 36 68 102 77 35 4 69 8 76 7 6 0 12 3 12 8 0 8 -63 29 -89 29 -9 0
-11 7 -6 23 14 47 17 176 5 229 -17 71 -75 178 -97 178 -7 0 -10 10 -7 25 3
18 0 25 -11 25 -13 0 -16 4 -15 25 0 5 -10 19 -37 49 -9 10 -9 16 0 26 9 10 9
12 -3 8 -8 -2 -19 -1 -25 4 -35 29 -65 58 -60 58 4 0 -3 13 -14 29 -12 16 -21
34 -21 40 0 6 -7 11 -15 11 -8 0 -15 7 -15 15 0 21 12 19 39 -6 17 -16 122
-47 417 -122 217 -55 397 -97 400 -94 9 9 -24 76 -52 104 -24 24 -25 28 -10
38 9 7 16 17 16 23 0 6 8 17 18 24 9 7 28 30 42 50 14 21 28 38 32 38 4 0 22
20 41 45 19 24 37 42 40 39 3 -3 8 3 11 14 4 11 18 28 32 37 14 9 29 27 34 41
6 14 23 33 40 42 16 9 30 21 30 26 0 5 7 17 16 27 15 16 12 18 -38 23 -29 3
-252 9 -496 13 -377 7 -444 10 -452 23 -6 9 -10 10 -10 3 0 -6 -9 -11 -20 -10
-22 1 -24 6 -11 25 9 15 31 13 46 -4 6 -7 20 -8 35 -4 20 6 21 8 6 9 -34 2 -1
24 33 23 17 0 33 4 37 9 3 5 10 7 15 4 5 -4 9 -1 9 5 0 6 5 8 10 5 6 -3 10 -2
10 3 0 6 9 8 19 5 11 -3 28 4 39 15 12 12 22 16 24 10 2 -6 10 -4 20 6 9 9 23
14 31 11 7 -3 31 10 51 29 24 22 44 32 55 29 9 -4 13 -3 9 2 -4 4 2 16 14 26
11 11 16 19 10 19 -7 0 -12 5 -12 11 0 6 5 9 12 7 13 -5 58 34 58 50 0 5 7 13
16 16 8 3 12 10 9 16 -3 5 1 10 9 10 9 0 16 7 16 15 0 8 5 15 11 15 5 0 7 6 3
13 -4 6 -4 9 1 5 12 -11 35 11 29 27 -3 7 0 16 7 21 8 5 10 3 4 -7 -5 -8 4 -3
18 10 15 14 27 33 27 43 0 10 5 18 11 18 15 0 111 98 134 138 11 17 22 32 26
32 11 0 79 69 79 80 0 5 7 10 15 10 8 0 20 9 27 20 7 11 18 20 25 20 7 0 13 4
13 9 0 5 14 12 30 16 17 4 30 13 30 21 0 8 10 14 24 14 13 0 27 8 30 17 6 15
8 15 17 3 7 -12 11 -12 17 -2 5 7 13 12 18 10 5 -1 36 1 68 5 41 5 62 4 66 -4
5 -7 22 -9 49 -4 23 4 39 11 36 15 -8 14 43 18 135 13 47 -3 93 -6 103 -6z
m-2263 -7 c0 -5 -5 -10 -11 -10 -5 0 -7 5 -4 10 3 6 8 10 11 10 2 0 4 -4 4
-10z m-357 -92 c7 -21 -66 -148 -85 -148 -26 0 -22 17 18 93 33 63 57 83 67
55z m-193 -81 c46 -24 51 -31 68 -87 16 -50 5 -115 -31 -187 -40 -82 -61 -95
-153 -96 -88 0 -117 16 -145 79 -39 86 -32 122 45 236 53 80 132 100 216 55z
m4767 -37 c26 -12 51 -33 69 -59 23 -35 26 -49 22 -95 -5 -59 -35 -107 -78
-125 -54 -21 -99 -22 -143 -3 -94 42 -139 140 -98 220 24 46 39 60 88 78 42
15 78 11 140 -16z m2868 -15 c60 -34 84 -65 48 -65 -30 1 -138 64 -141 83 -5
26 25 21 93 -18z m1077 -626 c-42 -80 -77 -135 -87 -137 -42 -9 -35 18 36 144
90 161 88 159 106 141 13 -12 5 -33 -55 -148z m-1416 -679 c-198 -885 -237
-1037 -253 -994 -3 9 -13 9 -38 1 -19 -5 -33 -13 -31 -16 2 -3 -13 -6 -35 -6
-24 0 -39 5 -39 12 0 13 61 297 175 818 36 165 86 395 111 510 25 116 48 218
51 229 4 16 17 6 79 -55 l74 -75 -94 -424z m1204 380 c0 -34 -9 -40 -102 -64
-75 -20 -93 -18 -101 13 -4 16 2 25 23 36 35 18 162 53 173 48 4 -2 7 -17 7
-33z m-9032 -14 c80 -41 100 -60 85 -84 -16 -27 -44 -25 -114 6 -76 34 -94 52
-85 87 9 34 32 32 114 -9z m1572 -6 c0 -5 -2 -10 -4 -10 -3 0 -8 5 -11 10 -3
6 -1 10 4 10 6 0 11 -4 11 -10z m1825 -950 c-3 -5 -13 -10 -21 -10 -8 0 -12 5
-9 10 3 6 13 10 21 10 8 0 12 -4 9 -10z m5735 -79 c20 -76 58 -294 53 -308
-17 -43 -85 37 -104 121 -29 129 19 305 51 187z m-5921 -60 c-11 -13 -29 -31
-39 -38 -11 -8 -20 -22 -20 -32 0 -35 -159 -254 -174 -240 -4 4 -9 30 -11 60
-3 40 1 59 16 80 10 15 19 34 19 43 0 8 13 22 28 30 16 8 39 26 52 39 13 14
29 23 36 20 6 -2 14 3 18 12 3 9 2 13 -4 10 -6 -3 -7 1 -4 9 3 9 11 16 18 16
6 0 19 15 29 32 l19 32 18 -24 c18 -23 18 -25 -1 -49z m5237 -65 c9 -22 -102
-186 -125 -186 -37 0 -33 22 12 88 73 107 101 130 113 98z m-5526 -171 c0 -40
-9 -52 -36 -47 -31 6 -33 44 -1 65 27 18 37 13 37 -18z m-114 -91 c9 -32 20
-75 24 -96 10 -52 91 -178 115 -178 13 0 65 -45 65 -57 0 -7 6 -10 15 -6 9 3
23 -1 33 -9 21 -18 184 -98 211 -103 10 -2 27 -8 37 -13 11 -6 47 -18 82 -28
35 -10 65 -21 67 -24 2 -4 -7 -18 -20 -30 -14 -13 -25 -34 -25 -47 0 -19 5
-23 31 -23 29 0 31 -2 25 -26 -5 -18 -2 -32 10 -45 17 -18 15 -19 -72 -19
-181 1 -322 83 -525 307 -99 108 -110 134 -116 279 -6 127 1 204 18 187 5 -5
16 -36 25 -69z m4781 14 c-3 -8 -6 -5 -6 6 -1 11 2 17 5 13 3 -3 4 -12 1 -19z
m-4077 -93 c0 -2 -35 -53 -77 -111 -73 -101 -103 -131 -103 -104 0 18 153 220
167 220 7 0 13 -2 13 -5z m-3770 -25 c0 -5 9 -10 20 -10 16 0 26 -11 18 -22
-4 -8 24 -48 31 -44 4 3 13 -6 19 -19 9 -20 7 -33 -9 -71 -15 -34 -24 -43 -32
-35 -6 6 -19 11 -30 11 -11 0 -15 4 -11 11 4 8 0 9 -15 4 -14 -4 -21 -2 -19 5
2 7 -10 14 -27 16 -16 2 -31 8 -33 14 -2 6 -15 23 -28 37 -13 14 -24 32 -24
40 0 16 24 43 54 59 26 15 86 17 86 4z m767 -52 c66 -51 79 -71 57 -92 -25
-25 -50 -19 -105 27 -61 49 -75 68 -66 91 11 29 57 18 114 -26z m2657 -113
c-4 -18 -1 -25 15 -30 12 -3 21 -13 21 -21 0 -19 -6 -18 -45 6 -33 20 -33 21
-18 50 17 34 36 31 27 -5z m2363 -102 c28 -21 61 -45 73 -53 78 -54 101 -74
98 -89 -6 -27 -30 -17 -146 64 -74 52 -112 84 -112 96 0 30 31 23 87 -18z
m-4698 -4 c11 -10 25 -19 30 -19 27 0 31 -142 6 -180 -63 -96 -201 -88 -254
15 -23 43 -24 50 -12 93 18 67 50 98 115 112 45 9 92 0 115 -21z m1793 -30
c-3 -28 -7 -37 -13 -28 -12 20 -11 43 3 57 7 7 12 12 13 12 0 0 -1 -19 -3 -41z
m-2556 -85 c53 -35 65 -59 43 -81 -13 -13 85 3 114 19 53 28 137 28 137 0 0
-10 5 -23 11 -29 8 -8 5 -13 -10 -18 -12 -3 -21 -13 -21 -21 0 -8 -6 -14 -14
-14 -8 0 -18 -5 -22 -11 -9 -15 17 -30 32 -19 6 6 14 7 17 3 9 -9 9 -23 0 -22
-28 5 -36 -2 -17 -15 10 -8 19 -23 19 -33 0 -17 -38 -55 -59 -59 -6 -1 -19 -5
-28 -9 -14 -5 -18 -2 -18 14 0 12 -5 21 -11 21 -6 0 -8 9 -4 20 3 11 3 21 -2
21 -33 6 -70 5 -78 -2 -5 -4 -36 -10 -69 -14 -69 -9 -76 -3 -76 70 0 28 -7 63
-15 79 -9 16 -12 32 -9 35 4 3 9 0 11 -7 3 -6 9 -9 14 -6 5 3 -4 21 -21 40
-33 38 -37 53 -18 72 15 15 25 12 94 -34z m2640 -24 c7 -19 10 -37 8 -39 -2
-2 -21 11 -44 29 -50 39 -53 60 -7 51 25 -5 34 -14 43 -41z m254 -70 c0 -11
-33 -30 -52 -30 -7 1 -3 9 11 20 25 22 41 26 41 10z m-2208 -267 c249 -216
491 -409 647 -516 67 -47 65 -48 113 98 25 80 37 105 51 105 21 0 21 -12 3
-53 -17 -39 -43 -107 -63 -167 -19 -54 -25 -47 162 -160 73 -44 137 -86 144
-93 6 -8 56 -40 111 -73 55 -32 100 -64 100 -71 0 -8 -16 -21 -36 -29 -49 -20
-240 -218 -312 -322 -150 -218 -263 -332 -374 -374 -35 -14 -64 -32 -71 -45
-7 -12 -41 -70 -77 -128 -51 -84 -69 -105 -85 -103 -38 6 -29 44 29 127 31 43
56 83 56 89 0 5 -28 10 -62 11 -84 2 -156 26 -170 57 -14 31 -24 30 -105 -7
-96 -43 -101 -45 -169 -63 -140 -37 -267 -9 -365 82 -75 69 -109 136 -116 234
-7 88 8 164 46 239 l29 57 -32 31 c-30 31 -31 33 -34 141 -6 198 38 344 137
452 43 47 51 62 45 80 -11 35 -5 127 11 175 44 130 192 333 243 333 11 0 74
-46 144 -107z m5585 -205 c-15 -9 -19 -4 -11 16 5 14 9 15 15 5 5 -8 3 -17 -4
-21z m-185 -435 c10 -9 18 -21 18 -27 0 -13 -76 -222 -92 -254 -13 -26 -65
-55 -74 -41 -3 5 -2 13 1 19 3 6 -1 7 -9 4 -9 -3 -16 -2 -16 4 0 12 57 62 70
62 5 0 5 13 0 29 -6 23 -5 29 5 25 16 -6 29 12 15 21 -6 3 2 17 17 31 17 16
23 28 16 32 -15 10 -13 63 4 89 18 27 21 28 45 6z m-2464 -418 c-1 -14 -5 -25
-9 -25 -4 0 -6 11 -6 25 0 14 3 25 8 25 5 0 8 -11 7 -25z m17 -143 c-3 -3 -11
0 -18 7 -9 10 -8 11 6 5 10 -3 15 -9 12 -12z m-380 -242 c36 -14 75 -58 75
-86 0 -26 -55 -138 -77 -155 -18 -16 -122 5 -145 29 -9 9 -19 33 -23 52 -5 28
0 44 24 83 29 44 81 87 108 87 6 0 23 -4 38 -10z m915 -50 c0 -4 -39 -10 -87
-12 -99 -4 -154 -24 -213 -80 l-35 -33 3 -185 c4 -212 21 -284 22 -91 0 100 2
121 13 113 7 -6 24 -9 38 -6 22 5 23 4 7 -9 -10 -8 -15 -17 -11 -20 13 -13 22
-6 39 29 9 20 24 38 33 41 9 2 24 9 35 15 10 5 36 16 57 23 39 14 39 14 54
-15 20 -38 35 -38 35 -1 0 16 9 39 19 52 l19 24 449 1 c246 1 467 0 491 -3
l42 -5 -37 -19 c-55 -28 -68 -40 -92 -82 -26 -47 -27 -60 -1 -52 12 4 20 2 20
-5 0 -18 82 -100 127 -127 24 -14 43 -26 43 -27 0 -2 -24 -22 -54 -46 -37 -29
-58 -55 -66 -81 -18 -54 -41 -75 -91 -83 -23 -4 -46 -9 -51 -12 -18 -11 68
-81 114 -92 59 -15 200 -91 195 -105 -4 -13 -64 -35 -99 -36 -36 -1 -236 -50
-323 -79 -16 -6 -68 -22 -115 -37 -100 -31 -117 -39 -275 -116 -108 -54 -184
-103 -173 -114 2 -2 22 2 45 10 174 60 426 111 773 155 218 28 216 28 311 36
l85 6 37 -43 c41 -48 45 -72 20 -119 -22 -39 -45 -64 -103 -110 -51 -40 -64
-41 -230 -14 -109 17 -120 17 -264 0 -83 -9 -178 -23 -211 -31 -232 -52 -232
-52 -335 -86 -115 -39 -144 -50 -200 -79 -87 -44 -103 -54 -137 -77 -39 -29
-54 -29 -101 0 -20 12 -50 28 -66 35 -28 13 -28 13 -10 35 10 12 40 43 66 68
54 51 54 68 2 37 -19 -11 -34 -16 -34 -12 0 4 -11 -3 -24 -15 l-25 -23 5 78
c3 44 6 89 7 101 1 11 5 19 10 16 8 -5 10 9 7 49 -1 16 6 36 15 45 16 15 16
17 1 29 -11 8 -13 13 -6 16 7 2 12 21 13 43 0 22 5 43 10 46 4 3 1 13 -7 22
-20 20 -20 37 -1 37 8 0 15 4 15 10 0 11 74 60 91 60 6 0 25 6 42 13 54 23
100 39 137 46 19 4 45 13 57 19 12 7 32 12 45 12 13 0 36 7 52 15 15 8 42 15
60 15 17 0 44 7 60 15 15 8 45 15 65 15 20 1 47 7 61 15 14 8 43 15 65 15 49
0 85 9 85 21 0 14 -74 10 -113 -6 -20 -8 -54 -15 -75 -15 -21 0 -47 -7 -58
-15 -10 -8 -39 -15 -65 -15 -25 0 -50 -5 -55 -10 -6 -6 -33 -15 -60 -20 -57
-10 -130 -28 -159 -39 -18 -7 -77 -25 -170 -51 -76 -21 -104 -21 -114 -2 -7
14 -6 24 4 38 8 11 15 25 15 33 0 8 11 28 23 45 13 17 30 42 36 55 11 20 4 17
-45 -18 -57 -41 -58 -41 -66 -20 -5 12 -6 30 -3 40 4 11 2 19 -3 19 -6 0 -12
7 -16 15 -3 8 -2 14 2 14 19 -3 22 3 11 22 -6 12 -7 24 -3 28 13 9 94 129 94
138 0 4 -6 1 -13 -7 -16 -21 -87 -64 -87 -53 0 4 -6 -3 -13 -17 -9 -19 -11
-170 -8 -670 2 -373 7 -636 12 -622 10 26 7 26 86 6 74 -18 116 -14 66 7 -32
13 -44 41 -23 54 6 3 10 15 10 26 0 17 3 18 21 8 16 -8 28 -8 53 4 41 19 194
66 226 70 29 2 39 32 13 39 -10 2 -46 2 -81 -2 -34 -3 -68 -2 -75 2 -12 7 -10
9 14 12 6 0 17 10 24 20 12 16 17 17 30 6 15 -12 20 -4 16 23 0 4 8 7 18 7 11
0 23 5 26 10 4 6 10 8 15 5 4 -3 10 2 14 10 3 8 14 15 25 15 11 0 32 6 48 14
45 22 116 42 146 41 15 -1 27 2 27 5 0 10 43 28 55 23 6 -2 10 -29 9 -60 -2
-64 -17 -83 -70 -83 -18 0 -39 -2 -47 -5 -7 -3 -27 7 -43 24 -16 16 -41 32
-55 36 -24 6 -27 3 -31 -24 -3 -19 0 -32 9 -35 18 -7 16 -26 -3 -26 -9 0 -14
-6 -11 -12 5 -17 96 -19 122 -4 11 7 40 13 64 15 25 1 48 4 53 7 4 3 17 0 29
-6 17 -10 23 -8 35 8 7 10 35 25 61 32 56 16 130 47 137 58 3 5 29 16 58 25
29 9 97 30 151 47 53 16 113 39 133 49 19 11 43 18 52 16 9 -2 20 -4 25 -4 17
-2 5 -20 -15 -23 -25 -3 -38 -38 -15 -38 45 0 145 45 185 83 42 40 44 41 58
23 7 -11 15 -18 17 -15 23 31 198 362 251 474 27 56 81 130 96 130 9 0 17 -13
20 -35 l6 -35 7 30 c4 17 11 68 17 115 23 204 102 546 122 534 4 -3 19 20 33
51 15 30 31 55 37 55 6 0 8 -3 5 -6 -3 -4 -2 -14 3 -24 6 -11 3 -42 -9 -91
-10 -41 -21 -123 -25 -183 -3 -60 -10 -114 -14 -120 -19 -24 4 -565 24 -585
13 -14 23 32 29 138 6 111 11 176 15 176 1 0 3 23 6 50 8 96 22 113 51 66 10
-16 9 -18 -9 -13 -15 3 -19 1 -16 -9 3 -8 14 -13 25 -11 27 4 38 -25 14 -38
-10 -5 -21 -17 -25 -25 -3 -9 -2 -14 3 -11 10 6 31 -37 31 -64 0 -11 4 -20 9
-20 5 0 11 -10 14 -22 9 -39 31 -93 50 -121 39 -60 33 -87 -45 -207 -34 -53
-85 -100 -108 -100 -6 0 -8 -5 -5 -11 4 -5 0 -18 -8 -27 -8 -9 -31 -51 -51
-92 -46 -93 -104 -176 -133 -189 -13 -6 -23 -18 -23 -27 0 -18 -89 -144 -102
-144 -4 0 -8 -6 -8 -13 0 -7 -16 -28 -34 -46 -19 -19 -36 -46 -38 -60 -2 -20
-8 -25 -25 -24 -20 2 -20 0 -10 -29 7 -17 22 -35 35 -41 12 -6 22 -14 22 -19
0 -4 9 -8 20 -8 11 0 20 -5 20 -11 0 -7 -7 -8 -17 -4 -10 4 -27 8 -38 9 -11 0
-23 6 -27 11 -5 6 -8 6 -8 -1 0 -17 27 -66 42 -75 7 -4 9 -11 6 -14 -4 -4 -17
2 -29 14 -23 22 -45 29 -34 11 6 -11 -11 -13 -59 -10 -27 2 -28 0 -13 -14 8
-9 20 -16 26 -16 6 0 11 -5 11 -11 0 -6 -9 -9 -20 -6 -11 3 -18 1 -14 -4 3 -5
1 -9 -5 -9 -5 0 -12 8 -14 18 -4 14 -5 14 -6 -3 0 -12 11 -28 29 -40 29 -20
39 -35 21 -35 -5 0 -11 7 -15 15 -3 8 -15 15 -27 15 -14 0 -19 -5 -16 -14 3
-8 1 -17 -6 -20 -7 -2 -5 -5 5 -5 9 -1 20 -7 24 -13 4 -7 4 -10 0 -6 -4 3 -19
0 -34 -8 -25 -13 -47 -10 -26 4 22 16 39 180 20 199 -4 4 -20 2 -36 -4 -33
-12 -37 -7 -15 21 19 25 20 57 2 50 -7 -2 -22 -21 -32 -41 -11 -21 -47 -67
-80 -103 -33 -36 -72 -81 -86 -100 -37 -49 -257 -265 -300 -293 -19 -13 -67
-39 -105 -57 -38 -17 -82 -39 -99 -48 -16 -9 -54 -16 -85 -16 -64 -1 -102 -18
-83 -37 10 -10 18 -10 39 0 29 13 67 6 62 -11 -5 -13 -111 -43 -185 -52 -39
-5 -55 -3 -66 9 -13 13 -19 13 -43 0 -56 -29 -263 9 -343 62 -29 20 -113 62
-123 63 -3 0 -4 -9 -1 -19 5 -18 2 -19 -32 -8 -35 10 -58 29 -90 72 -13 18
-14 -5 -9 -200 3 -121 7 -235 9 -252 4 -37 -3 -40 -48 -17 -47 24 -75 53 -86
88 -13 41 -33 489 -32 753 l0 212 -40 32 c-22 17 -70 47 -107 66 -66 34 -67
34 -76 13 -12 -26 4 -75 45 -143 16 -26 29 -54 29 -63 0 -9 18 -36 40 -61 41
-46 51 -69 27 -60 -10 4 -12 -3 -9 -23 2 -15 -1 -31 -7 -34 -7 -4 -11 1 -11
13 0 12 -4 21 -8 21 -4 0 -20 24 -36 53 -15 28 -43 79 -61 112 -19 33 -37 67
-40 75 -4 8 -10 22 -15 30 -8 13 -35 65 -112 213 -9 18 -15 33 -13 35 2 2 27
-6 57 -18 29 -12 71 -29 93 -37 22 -8 55 -21 73 -29 18 -8 43 -14 55 -14 12
-1 33 -7 47 -15 14 -8 35 -14 48 -15 l22 0 -5 378 c-3 207 -5 382 -5 389 0 8
-19 3 -55 -12 -30 -14 -56 -21 -58 -17 -2 4 -3 23 -1 42 1 19 5 94 9 165 3 72
8 138 11 147 3 9 21 22 40 28 38 13 41 33 5 38 -19 3 -22 8 -16 30 3 15 20 41
36 57 34 36 39 87 12 118 -10 11 -13 17 -6 14 7 -4 14 1 18 13 8 26 -4 82 -16
74 -5 -3 -9 -1 -9 5 0 5 4 12 9 15 5 3 12 82 16 174 l7 169 234 1 c129 1 234
-3 234 -8z m1703 -17 c-7 -2 -19 -2 -25 0 -7 3 -2 5 12 5 14 0 19 -2 13 -5z
m-1933 -147 c0 -4 -68 -46 -76 -46 -2 0 -4 11 -4 25 0 23 4 25 40 25 22 0 40
-2 40 -4z m-277 -12 c9 -10 -4 -34 -19 -34 -8 0 -14 6 -14 13 0 22 19 35 33
21z m-14 -190 c-15 -18 -22 -13 -13 10 3 9 10 13 16 10 5 -3 4 -12 -3 -20z
m-21 -40 c2 -10 9 -23 14 -29 8 -7 8 -6 3 4 -5 10 -4 12 4 7 17 -11 5 -24 -28
-31 -42 -9 -47 -41 -11 -63 23 -15 26 -20 16 -34 -9 -12 -20 -15 -46 -9 -33 6
-35 10 -38 50 -4 53 20 95 49 86 14 -5 19 -2 19 12 0 15 -2 16 -10 3 -8 -13
-10 -13 -10 1 0 34 32 37 38 3z m-374 -103 c43 -48 -47 -181 -132 -196 -46 -7
-95 10 -100 36 -3 14 49 109 79 145 31 38 125 47 153 15z m2301 -87 c150 -42
207 -54 260 -54 81 0 82 -24 4 -122 -20 -26 -52 -73 -69 -103 -17 -30 -35 -55
-39 -55 -3 0 -40 33 -81 73 -101 99 -151 128 -355 204 -84 31 -93 46 -43 68
52 23 224 18 323 -11z m680 -164 c3 -5 1 -10 -4 -10 -6 0 -11 5 -11 10 0 6 2
10 4 10 3 0 8 -4 11 -10z m-3363 -51 c81 -52 111 -116 71 -151 -25 -22 -99
-58 -118 -58 -16 0 -61 28 -102 64 -43 36 -22 130 35 160 40 22 60 19 114 -15z
m-2953 -92 c36 -30 77 -115 62 -130 -6 -6 -11 -7 -11 -1 0 5 -11 10 -25 10
-14 1 -33 8 -41 15 -17 14 -64 109 -64 129 0 17 48 3 79 -23z m2766 -97 c3 -6
-1 -7 -9 -4 -18 7 -21 14 -7 14 6 0 13 -4 16 -10z m45 -25 c7 -8 16 -15 21
-15 4 0 28 -13 52 -30 25 -16 48 -30 52 -30 18 0 109 -76 129 -109 34 -53 170
-317 337 -651 173 -347 183 -369 176 -376 -10 -10 -114 162 -182 299 -68 138
-193 340 -267 429 -22 26 -52 74 -68 106 -16 33 -54 86 -84 119 -31 34 -56 70
-56 81 0 12 -4 24 -10 27 -5 3 -16 21 -25 38 -8 18 -36 54 -62 80 -25 26 -41
47 -36 47 6 0 16 -7 23 -15z m3826 -396 c24 -14 35 -30 40 -55 14 -74 -17
-177 -59 -204 -93 -58 -187 -7 -187 100 0 73 39 141 95 166 43 19 73 17 111
-7z m-1511 1 c3 -6 -6 -15 -22 -21 -62 -23 -103 -43 -103 -51 0 -4 -13 -8 -29
-8 -16 0 -34 -7 -41 -15 -7 -8 -20 -15 -29 -15 -9 0 -25 -6 -36 -14 -11 -7
-37 -16 -57 -20 l-38 -7 0 48 c0 26 4 54 8 60 5 7 30 16 57 19 27 3 54 9 60
12 5 4 53 10 105 13 52 3 100 6 107 7 6 1 15 -3 18 -8z m2000 -160 c20 -22 89
-60 110 -60 23 0 27 -17 11 -48 -16 -30 -67 -69 -129 -98 -36 -17 -38 -17 -56
2 -10 12 -22 35 -26 52 -7 35 -38 45 -49 16 -4 -9 -9 -14 -13 -11 -12 13 21
73 66 120 51 53 60 56 86 27z m883 -252 c8 -7 35 -15 61 -18 l46 -5 -50 -24
c-27 -13 -58 -27 -67 -32 -10 -5 -31 -9 -48 -9 -22 0 -28 -4 -23 -15 4 -13 -2
-15 -30 -13 -27 1 -34 5 -26 14 8 9 5 11 -10 7 -12 -3 -21 -9 -21 -13 0 -5 -8
-11 -17 -13 -11 -3 -7 -5 10 -6 40 -1 23 -21 -18 -21 -19 0 -37 -4 -40 -10 -3
-5 -15 -10 -26 -10 -10 0 -19 -4 -19 -10 0 -5 -17 -10 -38 -10 -21 0 -42 -3
-46 -7 -4 -5 -17 -9 -29 -10 -12 -1 -42 -4 -67 -6 -25 -3 -72 -10 -105 -17
-33 -6 -82 -13 -110 -15 -56 -3 -173 -7 -192 -6 -20 1 -15 31 5 32 9 1 46 3
82 5 36 2 83 8 105 13 22 6 61 13 87 16 26 3 50 10 53 16 4 5 21 9 39 9 19 0
47 7 62 15 16 8 39 15 52 15 12 0 22 5 22 10 0 6 8 10 18 10 10 0 27 7 38 15
10 8 26 15 35 15 9 0 26 9 39 20 13 11 28 20 34 20 6 0 29 14 51 31 35 27 46
30 84 25 24 -3 51 -11 59 -18z m-2111 -86 c-10 -2 -17 -10 -17 -18 0 -8 -8
-14 -17 -13 -12 0 -13 2 -5 6 10 4 10 8 0 21 -10 12 -10 14 0 8 7 -4 15 -1 18
9 5 13 9 13 22 3 13 -12 13 -13 -1 -16z m-17 -52 c0 -5 -2 -10 -4 -10 -3 0 -8
5 -11 10 -3 6 -1 10 4 10 6 0 11 -4 11 -10z m60 -24 c0 -3 -4 -8 -10 -11 -5
-3 -10 -1 -10 4 0 6 5 11 10 11 6 0 10 -2 10 -4z m1124 -65 c8 -12 -39 -23
-69 -15 -36 9 -20 24 25 24 21 0 41 -4 44 -9z m-1265 -97 c2 -2 -5 -4 -16 -4
-12 0 -23 7 -27 15 -5 13 -2 14 17 4 12 -6 24 -13 26 -15z m-45 -96 c18 -25
16 -31 -8 -22 -9 4 -15 12 -12 20 3 7 0 15 -7 18 -9 3 -9 5 0 5 6 1 19 -9 27
-21z m50 -26 c3 -5 -1 -9 -9 -9 -8 0 -15 4 -15 9 0 4 4 8 9 8 6 0 12 -4 15 -8z
m1366 -12 c7 -13 7 -33 -1 -67 -14 -60 -21 -74 -43 -87 -48 -30 -62 117 -15
157 28 22 46 22 59 -3z m-1505 0 c3 -5 2 -10 -4 -10 -5 0 -13 5 -16 10 -3 6
-2 10 4 10 5 0 13 -4 16 -10z m80 0 c3 -5 1 -10 -4 -10 -6 0 -11 5 -11 10 0 6
2 10 4 10 3 0 8 -4 11 -10z m-208 -76 c-3 -3 -12 -4 -19 -1 -8 3 -5 6 6 6 11
1 17 -2 13 -5z m978 -24 c3 -5 1 -10 -4 -10 -6 0 -11 5 -11 10 0 6 2 10 4 10
3 0 8 -4 11 -10z m41 -29 c0 -12 -6 -17 -17 -14 -12 3 -17 -1 -16 -13 1 -9 -4
-19 -10 -21 -19 -7 -16 28 5 48 22 23 38 24 38 0z m-66 -37 c0 -14 -3 -14 -15
-4 -8 7 -15 14 -15 16 0 2 7 4 15 4 8 0 15 -7 15 -16z m1392 -1 c24 -22 23
-55 -4 -80 -52 -47 -105 -56 -140 -24 -30 29 -17 64 35 95 49 30 83 33 109 9z
m-3513 -659 c6 4 11 2 11 -3 0 -6 -11 -11 -25 -11 -18 0 -23 4 -18 16 4 11 8
12 13 4 4 -7 13 -9 19 -6z m-54 -4 c8 -13 -5 -13 -25 0 -13 8 -13 10 2 10 9 0
20 -4 23 -10z m111 -15 c9 -8 20 -15 26 -15 5 0 8 7 4 15 -4 10 1 15 15 15 16
0 19 -4 14 -20 -8 -24 -2 -25 20 -4 14 15 18 15 42 -1 17 -12 28 -14 32 -6 4
6 25 10 46 9 42 -1 80 -20 67 -33 -4 -4 9 -4 28 0 31 7 33 6 21 -8 -7 -9 -11
-22 -8 -29 3 -8 6 -6 6 5 1 25 25 16 29 -11 2 -12 0 -22 -4 -22 -23 0 -164 44
-164 51 0 5 -7 6 -15 2 -9 -3 -56 5 -104 17 -64 17 -88 27 -84 37 7 17 11 16
29 -2z m446 -97 c35 -20 58 -52 45 -60 -7 -4 -9 -8 -4 -9 4 -1 12 -3 17 -4 6
-1 19 -3 30 -4 24 -1 27 -21 3 -21 -14 0 -14 -2 -4 -12 6 -7 16 -13 22 -13 5
0 9 -4 8 -10 0 -5 -9 -9 -20 -8 -16 2 -12 -4 16 -32 19 -20 35 -41 35 -48 1
-7 3 -55 7 -107 l5 -94 -36 27 c-68 53 -223 94 -411 110 -22 2 38 4 133 5
l174 2 -6 58 c-4 31 -7 85 -8 120 -1 48 -6 65 -18 72 -10 5 -20 6 -24 3 -3 -3
-6 0 -6 9 0 14 9 28 17 28 2 0 13 -6 25 -12z m-1384 -90 c19 -19 15 -31 -24
-76 -34 -40 -66 -53 -79 -32 -6 10 21 56 58 98 23 25 28 27 45 10z m3778 -208
c41 -104 47 -130 34 -145 -7 -8 -19 -15 -28 -15 -18 0 -52 29 -52 44 0 6 -10
42 -22 80 -22 67 -22 68 -3 82 31 23 48 13 71 -46z m-5117 26 c-2 -3 -79 -7
-169 -11 -206 -7 -296 -14 -325 -25 -17 -7 -29 -4 -45 10 -22 19 -22 19 61 23
138 5 483 7 478 3z m841 -60 c0 -19 -33 -76 -45 -76 -9 0 -12 6 -8 17 5 12 2
15 -10 10 -19 -7 -29 5 -21 27 4 11 14 14 35 9 18 -3 29 -1 29 6 0 6 5 11 10
11 6 0 10 -2 10 -4z m190 -104 c0 -16 -78 -72 -100 -72 -5 0 -10 9 -10 19 0
11 -4 22 -10 26 -5 3 -7 12 -4 19 6 15 124 22 124 8z m2626 -87 c20 -8 50 -26
66 -40 38 -32 108 -168 108 -209 0 -62 -81 -136 -149 -136 -53 0 -154 122
-178 216 -13 53 5 129 38 152 49 35 66 38 115 17z m-1231 -285 c0 -15 -139
-87 -187 -97 -21 -4 -28 -2 -28 10 0 10 35 33 93 61 94 46 122 52 122 26z
m2479 -165 c-4 -8 -16 -15 -27 -15 -20 0 -20 0 -1 15 25 19 35 19 28 0z
m-1949 -478 c-19 -5 -35 -13 -35 -18 0 -15 -17 -10 -24 6 -16 44 36 74 71 41
l22 -21 -34 -8z"/>
<path d="M3960 8584 c-41 -14 -111 -42 -155 -64 -66 -32 -93 -54 -154 -121
-100 -110 -202 -239 -259 -327 -26 -40 -70 -107 -98 -150 l-51 -77 -49 1 c-27
0 -87 1 -134 3 -47 1 -92 2 -100 2 -8 -1 -55 1 -105 4 -58 3 -81 1 -65 -4 14
-5 50 -10 80 -10 31 -1 74 -10 99 -21 34 -16 65 -20 146 -20 94 0 103 -2 108
-20 8 -33 37 -25 37 10 0 28 18 66 45 96 5 7 28 42 50 79 50 83 156 227 205
280 21 22 43 50 49 63 7 12 27 28 45 36 19 8 37 24 41 35 13 41 166 143 275
184 65 24 177 23 210 -3 14 -11 23 -20 20 -20 -3 -1 -39 -3 -80 -4 -58 -2 -90
-10 -142 -34 -37 -17 -73 -35 -80 -41 -7 -6 -25 -20 -40 -32 -28 -21 -36 -39
-18 -39 6 0 29 12 53 27 100 63 153 83 222 83 36 0 82 -7 102 -15 50 -21 55
-19 51 22 -3 34 -8 40 -53 62 -27 13 -58 28 -67 32 -31 16 -111 8 -188 -17z"/>
<path d="M4025 8404 c-22 -9 -62 -22 -90 -30 -50 -14 -105 -57 -92 -71 5 -4
17 -2 27 5 11 7 35 12 55 12 19 0 56 7 82 16 89 31 114 33 186 18 84 -17 77
-18 77 6 0 14 -11 22 -42 30 -24 6 -59 15 -78 21 -48 12 -78 11 -125 -7z"/>
<path d="M3687 8282 c-17 -19 -24 -47 -9 -40 26 13 60 27 75 32 29 9 19 26
-16 26 -20 0 -41 -8 -50 -18z"/>
<path d="M5923 7945 c-1 -19 3 -35 8 -35 5 0 9 11 9 25 0 14 0 28 1 32 0 4 -3
9 -8 10 -5 2 -9 -12 -10 -32z"/>
<path d="M2623 7883 c9 -2 25 -2 35 0 9 3 1 5 -18 5 -19 0 -27 -2 -17 -5z"/>
<path d="M4130 7880 c0 -11 31 -11 75 0 26 7 22 8 -22 9 -30 0 -53 -3 -53 -9z"/>
<path d="M5893 7872 c-15 -9 -34 -58 -26 -66 10 -10 64 28 58 42 -3 8 -5 18
-5 23 0 11 -11 11 -27 1z"/>
<path d="M4440 7673 c-19 -13 -20 -25 -19 -186 1 -95 4 -260 8 -368 l6 -197
45 39 c47 41 50 58 6 38 -33 -16 -57 1 -37 25 9 10 9 20 3 32 -11 19 -4 55 12
66 6 4 4 14 -8 27 -19 21 -14 41 10 41 8 0 14 7 14 15 0 8 8 15 18 15 9 1 41
3 69 6 43 5 54 3 59 -10 15 -40 40 -8 78 104 24 68 21 89 -11 96 -53 11 -55
13 -48 42 4 20 1 33 -10 42 -8 7 -15 23 -15 36 0 31 -27 57 -89 86 -43 19 -51
27 -47 44 7 25 -14 28 -44 7z"/>
<path d="M5062 7525 c0 -16 2 -22 5 -12 2 9 2 23 0 30 -3 6 -5 -1 -5 -18z"/>
<path d="M5720 7525 c0 -8 5 -15 10 -15 6 0 10 7 10 15 0 8 -4 15 -10 15 -5 0
-10 -7 -10 -15z"/>
<path d="M4998 7458 c-4 -13 7 -87 12 -78 1 3 4 14 6 25 1 11 6 30 10 43 4 16
2 22 -9 22 -8 0 -17 -6 -19 -12z"/>
<path d="M5164 7418 c-4 -13 -20 -39 -35 -59 -32 -41 -38 -59 -12 -38 25 21
73 90 73 106 0 21 -18 15 -26 -9z"/>
<path d="M4937 7246 c-3 -8 -3 -17 0 -20 9 -9 34 15 27 25 -8 13 -21 11 -27
-5z"/>
<path d="M2976 7164 c-18 -26 -18 -26 3 -47 l21 -21 0 47 c0 26 -1 47 -2 47
-2 0 -11 -12 -22 -26z"/>
<path d="M4912 7170 c0 -14 2 -19 5 -12 2 6 2 18 0 25 -3 6 -5 1 -5 -13z"/>
<path d="M2935 7161 c-3 -5 -1 -12 5 -16 5 -3 10 1 10 9 0 18 -6 21 -15 7z"/>
<path d="M4880 7104 c0 -8 5 -12 10 -9 6 3 10 10 10 16 0 5 -4 9 -10 9 -5 0
-10 -7 -10 -16z"/>
<path d="M4855 7055 c-5 -11 -10 -24 -13 -30 -3 -5 3 -3 13 7 9 9 15 22 12 30
-3 9 -7 7 -12 -7z"/>
<path d="M4177 7009 c-3 -11 -3 -27 0 -35 6 -16 63 -19 63 -4 0 6 7 10 16 10
25 0 13 42 -13 46 -25 4 -42 -14 -23 -26 9 -6 6 -10 -9 -15 -27 -8 -39 1 -23
17 14 14 16 28 3 28 -5 0 -11 -9 -14 -21z"/>
<path d="M4827 7003 c-4 -3 -7 -11 -7 -17 0 -6 5 -5 12 2 6 6 9 14 7 17 -3 3
-9 2 -12 -2z"/>
<path d="M4649 6823 c-95 -64 -169 -103 -199 -103 -19 0 -20 -6 -20 -245 0
-157 4 -245 10 -245 6 0 10 10 11 23 6 197 11 240 26 256 15 15 16 14 11 -6
-4 -15 -2 -20 8 -16 9 3 11 10 5 22 -6 10 -5 24 1 35 7 13 7 20 -1 25 -6 4 -9
21 -7 38 4 26 2 31 -12 26 -15 -6 -16 -5 -2 13 26 33 33 38 107 82 40 23 75
47 78 52 10 16 42 12 49 -6 3 -9 6 -30 6 -48 0 -32 25 -139 52 -221 22 -66 47
-105 67 -105 16 0 20 10 24 53 7 76 15 100 73 231 30 66 52 121 50 123 -2 3
-21 -5 -41 -16 -55 -29 -150 -25 -177 9 -12 15 -18 34 -16 52 3 17 0 28 -7 28
-7 0 -50 -26 -96 -57z m-169 -273 c0 -21 -15 -27 -25 -10 -3 6 -1 10 5 10 6 0
8 5 5 10 -3 6 -1 10 4 10 6 0 11 -9 11 -20z"/>
<path d="M4066 5943 c-1 -1 -21 -3 -44 -4 -80 -5 -24 -22 100 -31 68 -5 131
-13 140 -18 24 -13 28 -13 28 4 0 27 -32 39 -126 45 -52 3 -96 5 -98 4z"/>
<path d="M5137 5708 c-20 -11 -35 -24 -32 -29 6 -9 79 -5 108 6 23 10 44 -17
54 -70 9 -40 9 -40 64 -46 31 -3 62 -10 70 -15 8 -4 55 -12 104 -16 50 -5 115
-11 145 -14 63 -6 52 10 -14 22 -40 6 -260 102 -345 149 -60 34 -107 38 -154
13z"/>
<path d="M4650 5709 c0 -5 5 -7 10 -4 6 3 10 8 10 11 0 2 -4 4 -10 4 -5 0 -10
-5 -10 -11z"/>
<path d="M4442 5665 c0 -16 2 -22 5 -12 2 9 2 23 0 30 -3 6 -5 -1 -5 -18z"/>
<path d="M5794 5278 c-33 -8 -61 -34 -51 -45 6 -6 82 23 100 38 14 11 -17 16
-49 7z"/>
<path d="M6175 5200 c3 -5 8 -10 11 -10 2 0 4 5 4 10 0 6 -5 10 -11 10 -5 0
-7 -4 -4 -10z"/>
<path d="M5571 5175 c-18 -8 -59 -15 -90 -15 -31 -1 -74 -7 -96 -15 -22 -8
-48 -15 -57 -15 -24 0 -75 -28 -128 -70 l-25 -19 32 -1 c17 0 34 4 38 9 6 11
75 44 125 59 19 7 67 14 105 17 39 3 79 10 90 15 11 5 33 13 49 17 17 5 32 15
34 21 5 16 -35 15 -77 -3z"/>
<path d="M5863 5138 c-27 -30 -46 -68 -38 -76 3 -4 22 10 41 31 19 20 44 37
54 37 28 0 51 11 44 21 -11 19 -80 10 -101 -13z"/>
<path d="M5092 5087 c-29 -30 -28 -47 2 -47 24 0 36 16 36 51 0 25 -12 24 -38
-4z"/>
<path d="M560 6791 c0 -5 10 -11 23 -15 32 -8 37 -7 37 6 0 6 -3 9 -6 5 -3 -3
-17 -2 -30 3 -13 5 -24 6 -24 1z"/>
<path d="M5470 4819 c0 -5 5 -7 10 -4 6 3 10 8 10 11 0 2 -4 4 -10 4 -5 0 -10
-5 -10 -11z"/>
<path d="M4947 4758 c-44 -57 -34 -76 17 -33 25 20 28 27 20 46 -10 22 -11 22
-37 -13z"/>
<path d="M4730 4716 c0 -8 5 -18 10 -21 6 -3 10 1 10 9 0 8 -4 18 -10 21 -5 3
-10 -1 -10 -9z"/>
<path d="M5218 4705 c-10 -13 -18 -31 -18 -41 0 -13 6 -12 35 10 29 22 41 26
70 20 23 -4 35 -2 35 5 0 12 -18 15 -62 12 -16 -1 -28 3 -28 8 0 18 -14 12
-32 -14z"/>
<path d="M5607 4693 c-4 -3 -7 -13 -7 -21 0 -12 3 -12 15 -2 8 7 15 16 15 21
0 11 -14 12 -23 2z"/>
<path d="M4548 4653 c-16 -8 -28 -19 -28 -25 0 -7 5 -6 14 1 8 7 27 16 42 20
18 5 23 9 14 12 -8 3 -27 -1 -42 -8z"/>
<path d="M5571 4627 c-6 -16 -16 -37 -22 -48 -9 -18 -8 -20 13 -17 21 3 23 0
20 -38 -4 -46 10 -63 34 -43 20 16 14 65 -14 129 l-20 45 -11 -28z"/>
<path d="M5145 4599 c-22 -22 -51 -46 -64 -52 -36 -18 -38 -37 -4 -37 30 0 63
28 97 83 28 46 14 49 -29 6z"/>
<path d="M5370 4630 c0 -5 5 -10 10 -10 6 0 10 5 10 10 0 6 -4 10 -10 10 -5 0
-10 -4 -10 -10z"/>
<path d="M4500 4597 c0 -8 -7 -17 -15 -21 -16 -6 -21 -36 -5 -36 5 0 6 7 3 17
-4 10 -2 14 5 9 6 -3 16 2 22 13 7 13 7 22 0 26 -5 3 -10 0 -10 -8z"/>
<path d="M4650 4570 c0 -5 5 -10 10 -10 6 0 10 5 10 10 0 6 -4 10 -10 10 -5 0
-10 -4 -10 -10z"/>
<path d="M4940 4524 c0 -8 5 -12 10 -9 6 3 10 10 10 16 0 5 -4 9 -10 9 -5 0
-10 -7 -10 -16z"/>
<path d="M5475 4494 c-27 -19 -58 -34 -69 -34 -15 0 -16 -3 -6 -15 26 -31 93
-6 124 45 29 51 21 52 -49 4z"/>
<path d="M5150 4490 c-12 -8 -10 -10 8 -10 13 0 20 4 17 10 -7 12 -6 12 -25 0z"/>
<path d="M5340 4492 c0 -5 7 -13 16 -16 10 -4 14 -1 12 6 -5 15 -28 23 -28 10z"/>
<path d="M5448 4313 c-44 -7 -32 -23 16 -23 51 0 78 8 70 21 -5 9 -35 10 -86
2z"/>
<path d="M6377 3807 c-3 -8 -1 -20 4 -28 5 -9 9 -9 9 -2 0 6 3 18 6 27 3 9 2
16 -4 16 -5 0 -12 -6 -15 -13z"/>
<path d="M6370 3670 c0 -5 5 -10 11 -10 5 0 7 5 4 10 -3 6 -8 10 -11 10 -2 0
-4 -4 -4 -10z"/>
<path d="M6086 3605 c-3 -8 -1 -15 3 -15 5 0 11 7 15 15 3 8 1 15 -3 15 -5 0
-11 -7 -15 -15z"/>
<path d="M6067 3573 c-4 -3 -7 -13 -7 -22 1 -13 3 -13 11 2 11 19 8 33 -4 20z"/>
<path d="M5630 3227 c-95 -59 -311 -167 -333 -167 -10 0 -30 -9 -44 -20 -14
-11 -32 -20 -39 -20 -8 0 -14 -4 -14 -9 0 -14 89 -18 94 -5 3 7 37 24 78 39
92 34 88 32 119 53 15 9 47 30 73 45 25 16 46 33 46 38 0 5 4 9 10 9 11 0 85
69 79 74 -2 2 -33 -15 -69 -37z"/>
<path d="M5261 3209 c-1 -9 -10 -24 -21 -34 -22 -20 -18 -35 10 -35 23 0 33
30 21 61 -6 15 -10 18 -10 8z"/>
<path d="M5667 3148 c-9 -13 -39 -48 -67 -78 -74 -80 -65 -94 23 -36 52 33
147 126 130 126 -5 0 -14 -5 -19 -10 -8 -8 -15 -6 -24 5 -17 20 -25 19 -43 -7z"/>
<path d="M4670 3130 c-13 -9 -13 -10 0 -11 8 -1 25 -3 38 -4 12 -1 25 2 28 6
3 5 -1 9 -10 9 -8 0 -20 2 -28 5 -7 3 -20 0 -28 -5z"/>
<path d="M5108 3122 c-23 -15 -48 -17 -167 -16 -142 1 -190 -9 -83 -18 95 -8
204 0 259 20 29 10 50 22 46 25 -11 11 -26 8 -55 -11z"/>
<path d="M4452 3080 c0 -14 2 -19 5 -12 2 6 2 18 0 25 -3 6 -5 1 -5 -13z"/>
<path d="M4455 2773 c4 -131 10 -241 13 -245 4 -4 5 20 4 52 -2 33 0 60 5 60
4 -1 26 -14 48 -30 22 -17 80 -57 130 -91 49 -33 92 -64 95 -69 6 -9 118 -60
133 -60 5 0 15 -7 22 -17 7 -10 19 -14 29 -10 21 8 12 27 -12 27 -19 0 -48 38
-44 57 2 7 -12 19 -31 26 -31 13 -85 65 -296 287 -67 69 -81 90 -81 116 0 18
6 34 13 37 9 3 9 8 -2 21 -8 9 -14 30 -13 46 0 17 -4 30 -10 30 -7 0 -8 -73
-3 -237z"/>
<path d="M6243 2989 c-14 -14 -6 -39 13 -39 16 0 19 16 4 25 -6 4 -8 11 -5 16
8 12 1 11 -12 -2z"/>
<path d="M5280 2926 c0 -41 15 -86 30 -86 14 0 13 32 -2 80 -16 49 -28 52 -28
6z"/>
<path d="M4582 2858 c4 -12 14 -13 63 -9 17 1 18 3 5 11 -22 14 -73 13 -68 -2z"/>
<path d="M5287 2804 c-4 -4 -7 -14 -7 -23 0 -11 3 -12 11 -4 6 6 10 16 7 23
-2 6 -7 8 -11 4z"/>
<path d="M5120 2375 c-19 -23 -8 -37 18 -20 12 9 22 20 22 26 0 14 -26 11 -40
-6z"/>
<path d="M8273 3055 c0 -8 4 -12 9 -9 4 3 8 9 8 15 0 5 -4 9 -8 9 -5 0 -9 -7
-9 -15z"/>
<path d="M9929 9053 c-13 -16 -12 -17 4 -4 9 7 17 15 17 17 0 8 -8 3 -21 -13z"/>
<path d="M9758 6915 c-4 -22 -10 -85 -13 -140 -11 -178 -35 -297 -120 -600
-88 -317 -88 -316 -89 -545 -1 -113 3 -222 8 -242 14 -65 -11 -44 -53 45 -54
112 -77 185 -92 296 -12 91 -13 93 -27 66 -30 -58 -31 -80 -3 -211 19 -90 37
-147 59 -188 18 -32 31 -60 30 -61 -2 -1 -48 1 -103 5 -79 6 -103 4 -116 -7
-9 -7 -26 -15 -37 -18 -11 -2 -30 -8 -41 -14 -38 -21 -41 -11 -7 20 19 16 37
29 39 27 3 -2 14 5 26 16 17 15 23 16 36 6 12 -10 16 -9 21 6 3 11 12 35 21
54 24 53 28 100 9 100 -16 0 -39 -35 -40 -60 -1 -28 -39 -78 -63 -83 -34 -6
-31 33 6 72 25 26 27 33 14 38 -8 3 -18 1 -22 -4 -3 -6 -14 -12 -24 -14 -10
-2 -26 -17 -35 -32 -16 -27 -16 -29 6 -45 22 -17 22 -17 2 -30 -11 -7 -20 -19
-20 -26 0 -17 -68 -76 -87 -76 -7 0 -13 5 -13 10 0 18 30 83 46 102 17 18 11
38 -11 38 -27 0 -72 -97 -66 -142 3 -27 -42 -80 -123 -142 -69 -53 -195 -178
-244 -241 -70 -92 -106 -142 -115 -162 -6 -13 -14 -23 -18 -23 -4 0 -10 -10
-13 -22 -3 -13 -13 -32 -21 -42 -14 -19 -15 -19 -36 0 -35 32 -40 49 -22 84
11 23 13 38 6 48 -15 24 -27 24 -53 2 -28 -24 -22 -24 -64 1 l-34 20 5 -21 c3
-11 9 -23 14 -26 14 -8 10 -50 -6 -64 -12 -10 -22 -7 -53 21 -97 85 -101 84
-41 -8 40 -61 41 -64 25 -88 -9 -13 -16 -31 -16 -39 0 -20 22 -25 38 -9 22 21
78 -15 74 -48 -1 -18 0 -20 7 -10 8 12 12 12 25 -2 9 -8 16 -20 16 -26 0 -6 4
-11 9 -11 5 0 8 -8 6 -17 -2 -10 -4 -24 -4 -31 -1 -7 -5 -11 -10 -7 -5 3 -12
1 -16 -5 -4 -6 -11 -7 -17 -4 -7 5 -3 10 10 15 12 5 22 15 22 23 0 23 -70 -16
-104 -58 -16 -20 -35 -36 -43 -36 -18 0 -16 6 12 34 26 26 32 46 15 46 -5 0
-10 -5 -10 -11 0 -23 -34 -43 -74 -44 -23 -1 -49 -5 -58 -9 -14 -6 -20 -2 -26
15 -8 19 -9 20 -15 5 -4 -10 -11 -15 -16 -11 -6 3 -14 -2 -19 -12 -8 -13 -21
-17 -51 -16 -28 1 -41 -2 -41 -11 0 -8 -7 -16 -15 -20 -10 -3 -15 1 -15 13 0
10 7 21 15 25 8 3 15 10 15 16 0 6 -7 4 -16 -5 -9 -9 -26 -15 -38 -13 -11 1
-26 -1 -32 -4 -6 -4 -10 1 -10 14 1 12 -5 23 -13 26 -8 3 -11 0 -7 -6 3 -6 2
-13 -4 -17 -5 -3 -10 -1 -10 4 0 6 -7 11 -15 11 -8 0 -15 5 -15 10 0 6 -5 10
-11 10 -5 0 -7 -4 -4 -10 4 -6 -8 -10 -29 -10 -19 0 -36 -5 -38 -10 -2 -6 -16
2 -33 17 -30 29 -54 45 -90 62 -33 14 -42 32 -49 94 -4 31 -12 57 -17 57 -5 0
-9 6 -9 13 0 7 -18 32 -40 56 -22 23 -40 37 -40 29 0 -7 8 -18 19 -25 35 -22
61 -89 62 -161 l0 -67 61 -39 c33 -22 68 -53 77 -69 36 -65 58 -91 106 -118
74 -42 76 -43 96 -31 10 7 28 12 39 12 36 0 125 -65 156 -114 16 -25 33 -45
37 -46 5 0 20 9 34 20 52 41 133 33 201 -21 35 -27 42 -24 42 20 0 22 13 82
29 133 48 156 61 204 61 222 0 33 120 261 188 356 73 103 294 333 382 397 90
67 158 94 265 107 28 4 71 11 97 17 45 10 50 9 86 -19 48 -39 120 -137 145
-199 25 -62 26 -200 2 -256 -15 -37 -15 -40 2 -64 85 -120 98 -167 64 -235
l-21 -42 26 -27 c14 -14 32 -48 40 -75 17 -57 6 -103 -34 -147 -21 -22 -23
-30 -13 -40 10 -10 16 -8 30 10 25 30 120 90 229 143 l91 45 1 240 0 240 -68
35 c-167 86 -285 271 -347 544 -25 110 -27 370 -2 441 9 28 35 104 57 170 23
66 54 172 71 236 28 110 37 165 59 354 11 89 11 234 1 280 l-7 30 -6 -40z
m-1383 -2312 c24 -28 30 -58 19 -100 -6 -22 -34 -33 -34 -13 0 6 5 10 10 10
20 0 10 58 -15 81 -26 25 -33 49 -15 49 6 0 22 -12 35 -27z m-664 -246 c-1
-12 -15 -9 -19 4 -3 6 1 10 8 8 6 -3 11 -8 11 -12z m328 -29 c1 -5 -6 -8 -15
-8 -11 0 -14 5 -10 16 3 9 6 21 7 27 0 12 17 -20 18 -35z m240 20 c0 -13 -3
-17 -6 -10 -2 6 -9 10 -14 6 -10 -6 -12 9 -2 19 13 14 23 7 22 -15z m-502 -3
c0 -8 -6 -15 -14 -15 -14 0 -17 12 -6 23 11 11 20 8 20 -8z m333 -5 c0 -5 -7
-10 -16 -10 -8 0 -12 5 -9 10 3 6 10 10 16 10 5 0 9 -4 9 -10z m-241 -26 c-11
-14 -10 -19 10 -35 l23 -19 -25 0 c-30 0 -42 33 -20 55 20 20 29 19 12 -1z
m346 -15 c-3 -37 -65 -69 -65 -33 0 8 -4 13 -9 10 -5 -3 -11 0 -14 8 -5 12 0
12 26 5 18 -5 33 -9 34 -9 2 0 3 9 3 20 0 11 6 20 13 20 8 0 13 -9 12 -21z
m-95 -23 c0 -3 -4 -8 -10 -11 -5 -3 -10 -1 -10 4 0 6 5 11 10 11 6 0 10 -2 10
-4z"/>
<path d="M7930 6480 c0 -5 7 -10 15 -10 8 0 15 5 15 10 0 6 -7 10 -15 10 -8 0
-15 -4 -15 -10z"/>
<path d="M7875 6450 c-3 -5 -1 -10 4 -10 6 0 11 5 11 10 0 6 -2 10 -4 10 -3 0
-8 -4 -11 -10z"/>
<path d="M8040 6420 c0 -5 6 -10 14 -10 8 0 18 5 21 10 3 6 -3 10 -14 10 -12
0 -21 -4 -21 -10z"/>
<path d="M7670 6391 c0 -4 23 -9 50 -10 28 0 50 4 50 9 0 6 -22 10 -50 10 -27
0 -50 -4 -50 -9z"/>
<path d="M7800 6374 c0 -8 5 -12 10 -9 6 3 10 10 10 16 0 5 -4 9 -10 9 -5 0
-10 -7 -10 -16z"/>
<path d="M3462 6338 c15 -45 31 -61 23 -23 -11 48 -14 55 -24 55 -6 0 -6 -12
1 -32z"/>
<path d="M7496 6311 c-19 -7 -18 -8 4 -14 25 -6 40 -2 40 14 0 11 -17 11 -44
0z"/>
<path d="M9214 5580 c-17 -8 -38 -26 -46 -41 -14 -24 -14 -25 11 -21 16 2 35
18 49 39 12 20 21 36 20 37 -2 1 -17 -5 -34 -14z"/>
<path d="M9058 5481 c-29 -29 -36 -51 -17 -51 17 0 71 59 64 70 -9 15 -17 12
-47 -19z"/>
<path d="M9912 5218 c-22 -22 -14 -38 16 -32 19 4 32 1 41 -10 19 -23 31 -20
31 9 0 18 -5 25 -19 25 -11 0 -23 5 -26 10 -8 14 -28 13 -43 -2z"/>
<path d="M7351 5028 c0 -87 3 -158 7 -158 4 0 6 62 4 138 -4 195 -9 203 -11
20z"/>
<path d="M7390 4810 c0 -22 5 -40 10 -40 6 0 10 18 10 40 0 22 -4 40 -10 40
-5 0 -10 -18 -10 -40z"/>
<path d="M7610 4802 c0 -12 -6 -22 -12 -22 -7 0 -19 -4 -26 -9 -12 -7 -12 -12
-1 -30 20 -31 34 -26 49 19 10 31 11 43 2 52 -9 9 -12 7 -12 -10z"/>
<path d="M7610 4702 c0 -17 27 -45 38 -39 16 11 2 47 -19 47 -11 0 -19 -4 -19
-8z"/>
<path d="M2538 4543 c6 -2 18 -2 25 0 6 3 1 5 -13 5 -14 0 -19 -2 -12 -5z"/>
<path d="M8255 4470 c3 -5 8 -10 11 -10 2 0 4 5 4 10 0 6 -5 10 -11 10 -5 0
-7 -4 -4 -10z"/>
<path d="M8300 4460 c0 -5 5 -10 11 -10 5 0 7 5 4 10 -3 6 -8 10 -11 10 -2 0
-4 -4 -4 -10z"/>
<path d="M8105 4421 c-3 -5 -1 -12 4 -15 5 -3 11 1 15 9 6 16 -9 21 -19 6z"/>
<path d="M7790 4410 c0 -5 5 -10 10 -10 6 0 10 5 10 10 0 6 -4 10 -10 10 -5 0
-10 -4 -10 -10z"/>
<path d="M50 4292 c0 -16 45 -51 139 -107 93 -57 94 -57 113 -37 20 19 19 20
-55 70 -47 31 -92 53 -119 57 -24 4 -51 11 -60 17 -10 5 -18 5 -18 0z"/>
<path d="M1446 4239 c-14 -17 -26 -36 -26 -42 0 -7 -3 -22 -6 -34 -10 -38 14
-26 36 17 47 92 45 118 -4 59z"/>
<path d="M8831 4129 c-30 -11 -56 -21 -59 -23 -2 -3 13 -9 35 -15 34 -10 40
-9 57 11 15 19 28 23 72 22 63 0 59 11 -6 18 -29 3 -65 -2 -99 -13z"/>
<path d="M8542 4084 c-29 -20 -52 -41 -52 -45 0 -13 16 -11 29 4 6 8 39 22 73
32 35 10 70 24 78 32 12 11 7 13 -31 13 -36 0 -56 -8 -97 -36z"/>
<path d="M9007 4109 c7 -7 15 -10 18 -7 3 3 -2 9 -12 12 -14 6 -15 5 -6 -5z"/>
<path d="M9050 4071 c0 -6 11 -23 24 -38 19 -22 27 -25 37 -16 9 9 5 17 -16
37 -29 27 -45 33 -45 17z"/>
<path d="M8448 4014 c-33 -17 -34 -20 -8 -34 17 -9 22 -7 30 16 13 34 11 35
-22 18z"/>
<path d="M9633 3957 c-45 -27 -53 -36 -52 -62 0 -28 1 -28 12 -10 7 11 32 39
57 62 53 50 52 51 -17 10z"/>
<path d="M1052 3827 c-12 -15 -27 -67 -18 -67 3 0 15 18 26 40 19 38 15 55 -8
27z"/>
<path d="M2056 3732 c-9 -16 52 -52 87 -52 44 0 67 24 38 39 -10 6 -33 8 -49
5 -16 -3 -39 -1 -50 5 -12 6 -23 7 -26 3z"/>
<path d="M2270 3720 c0 -5 5 -10 11 -10 5 0 7 5 4 10 -3 6 -8 10 -11 10 -2 0
-4 -4 -4 -10z"/>
<path d="M1940 3695 c0 -9 5 -15 11 -13 6 2 11 8 11 13 0 5 -5 11 -11 13 -6 2
-11 -4 -11 -13z"/>
<path d="M43 3648 c-6 -7 -14 -20 -19 -28 -7 -13 -5 -13 16 1 25 17 38 39 22
39 -5 0 -14 -6 -19 -12z"/>
<path d="M2580 3601 c0 -14 121 -92 134 -87 6 3 1 8 -11 11 -12 4 -25 15 -28
24 -9 30 -45 61 -70 61 -14 0 -25 -4 -25 -9z"/>
<path d="M1652 3482 c5 -16 -9 -114 -27 -202 -11 -49 9 -28 29 33 19 55 22
187 5 187 -6 0 -9 -8 -7 -18z"/>
<path d="M890 3326 c0 -25 43 -112 47 -96 4 15 -33 110 -42 110 -3 0 -5 -6 -5
-14z"/>
<path d="M1545 3140 c-21 -23 -12 -39 13 -24 19 12 29 44 14 44 -5 0 -17 -9
-27 -20z"/>
<path d="M9855 2788 c-153 -98 -209 -150 -224 -205 -21 -75 -5 -90 125 -122
44 -11 100 -29 125 -40 24 -10 61 -22 82 -25 l37 -7 0 246 c0 135 -1 245 -2
244 -2 0 -66 -41 -143 -91z"/>
<path d="M9032 2400 c0 -14 2 -19 5 -12 2 6 2 18 0 25 -3 6 -5 1 -5 -13z"/>
<path d="M1960 2250 c0 -37 19 -100 30 -100 13 0 12 30 -1 71 -16 46 -29 59
-29 29z"/>
<path d="M22 2159 c-13 -16 -21 -29 -17 -29 6 0 55 50 55 56 0 12 -18 -1 -38
-27z"/>
<path d="M1952 2033 c-23 -45 -28 -73 -12 -73 16 0 41 59 38 88 -3 26 -4 25
-26 -15z"/>
<path d="M152 1862 c-16 -2 -29 -15 -38 -37 -7 -19 -18 -36 -24 -40 -5 -3 -8
-16 -4 -29 3 -14 -1 -27 -10 -35 -29 -24 -16 -33 13 -9 35 27 37 36 14 54 -14
10 -15 13 -4 14 8 0 22 7 32 16 14 12 22 13 38 4 15 -8 27 -8 41 0 25 13 26
28 3 37 -10 4 -22 12 -28 18 -5 6 -21 9 -33 7z"/>
<path d="M7 1743 c-4 -3 -7 -18 -7 -32 0 -24 1 -24 15 -5 22 29 15 61 -8 37z"/>
<path d="M434 1627 c-17 -12 -44 -31 -60 -42 -16 -10 -49 -35 -74 -55 -25 -20
-57 -41 -72 -47 -14 -7 -34 -24 -43 -40 -18 -31 -93 -92 -134 -109 -30 -12
-42 -64 -16 -64 26 0 63 22 74 44 7 12 32 35 56 51 25 17 45 33 45 37 0 3 14
9 31 13 20 5 34 16 40 33 6 15 14 29 19 32 12 8 101 85 153 133 44 40 32 50
-19 14z"/>
<path d="M1198 1072 c-24 -26 -53 -61 -63 -77 -10 -17 -34 -49 -53 -73 -52
-65 -33 -74 31 -13 50 48 146 195 134 207 -2 2 -24 -17 -49 -44z"/>
<path d="M1413 420 c-89 -48 -421 -288 -523 -379 -43 -38 -44 -40 -19 -41 31
0 172 95 374 251 147 114 231 186 224 193 -2 2 -27 -9 -56 -24z"/>
<path d="M1615 300 c-3 -5 -1 -10 4 -10 6 0 11 5 11 10 0 6 -2 10 -4 10 -3 0
-8 -4 -11 -10z"/>
<path d="M1539 263 c-41 -49 -43 -54 -23 -47 19 7 53 43 54 57 0 13 -17 7 -31
-10z"/>
<path d="M1570 195 c-13 -14 -31 -25 -40 -25 -9 0 -29 -14 -46 -31 -16 -17
-65 -56 -109 -85 l-80 -54 56 0 c30 0 60 5 67 12 8 8 15 8 27 -2 14 -12 20
-10 40 16 14 16 24 32 25 37 0 4 4 7 9 7 5 0 7 -9 4 -20 -4 -14 0 -20 11 -20
9 0 16 7 16 15 0 8 4 15 8 15 12 0 74 139 67 150 -10 17 -30 11 -55 -15z"/>
<path d="M1916 15 c-19 -14 -18 -15 17 -15 26 0 37 4 37 15 0 19 -29 19 -54 0z"/>
</g>
</svg>
